Coordinates
version=1
nRows=24
nColumns=24
inDegrees=yes

Units are S.I. units (second, meters, Newtons, ...)
If the header above contains a line with 'inDegrees', this indicates whether rotational values are in degrees (yes) or radians (no).

endheader
time	pelvis_tilt	pelvis_list	pelvis_rotation	pelvis_tx	pelvis_ty	pelvis_tz	hip_flexion_r	hip_adduction_r	hip_rotation_r	knee_angle_r	ankle_angle_r	subtalar_angle_r	mtp_angle_r	hip_flexion_l	hip_adduction_l	hip_rotation_l	knee_angle_l	ankle_angle_l	subtalar_angle_l	mtp_angle_l	lumbar_extension	lumbar_bending	lumbar_rotation
      0.00000000	      5.29023907	     -5.36842919	     -4.61040677	      0.60839433	      1.01498084	      0.04152020	    -21.24107194	      5.09297427	      7.22560126	     -9.80104618	     13.86510760	      0.00000093	      0.00000000	     18.38990815	     -7.28512051	     -5.00202375	     -4.60439930	     -0.87480484	     -0.00000127	      0.00000000	    -17.94811648	      3.02777528	      3.93725818
      0.01700000	      4.72130648	     -5.01522840	     -4.81337449	      0.60906000	      1.01375259	      0.03925694	    -20.77619529	      4.53409856	      7.35687338	    -11.78657652	     14.08502509	      0.00000142	      0.00000000	     19.32031829	     -6.74560118	     -4.75545198	     -6.94315571	     -2.27612906	     -0.00000157	      0.00000000	    -17.24097833	      2.41613820	      3.91657007
      0.03300000	      4.33040125	     -4.65488680	     -4.76960457	      0.61061735	      1.01282336	      0.03633608	    -20.58592710	      4.00057033	      7.30972908	    -13.63333041	     13.94673535	      0.00000194	      0.00000000	     19.95452967	     -6.10022345	     -4.50825455	     -9.15816549	     -3.55618338	     -0.00000184	      0.00000000	    -16.67779133	      1.85310209	      3.74780931
      0.05000000	      3.99201892	     -4.33253605	     -5.01629226	      0.61229666	      1.01221424	      0.03395253	    -20.12272181	      3.46449122	      7.50916956	    -16.12094994	     13.65509535	      0.00000249	      0.00000000	     20.48631473	     -5.66994051	     -4.55447806	    -11.50113694	     -4.42058461	     -0.00000195	      0.00000000	    -16.19958607	      1.10841987	      3.57942134
      0.06700000	      4.14597118	     -4.03468008	     -5.02403961	      0.61487126	      1.01274393	      0.03168788	    -20.06187370	      3.02130680	      7.42101196	    -18.82022754	     12.80909788	      0.00000300	      0.00000000	     20.43990341	     -5.23717205	     -4.38564968	    -13.94095618	     -4.70017944	     -0.00000207	      0.00000000	    -16.09326637	      0.38945472	      3.46138674
      0.08300000	      4.24607771	     -3.70356249	     -4.80945433	      0.61770111	      1.01377875	      0.02877871	    -19.51280404	      2.63418113	      6.89940523	    -22.20950529	     11.48615839	      0.00000369	      0.00000000	     20.11379224	     -4.68791308	     -4.04804839	    -15.79623656	     -4.71682074	     -0.00000235	      0.00000000	    -15.95744894	     -0.27669514	      3.37592559
      0.10000000	      4.49155909	     -3.27639798	     -4.77084004	      0.62060334	      1.01531011	      0.02573689	    -18.46342866	      2.06427304	      6.19752558	    -26.61838780	      9.63179291	      0.00000446	      0.00000000	     19.55611361	     -4.10102653	     -4.01281287	    -17.72094032	     -4.17429303	     -0.00000226	      0.00000000	    -15.94120955	     -1.05456942	      3.25804232
      0.11700000	      4.75135247	     -2.93452010	     -4.40053784	      0.62322025	      1.01741933	      0.02200475	    -16.95583574	      1.56980623	      4.76857545	    -31.52003479	      6.78246684	      0.00000512	      0.00000000	     18.71291864	     -3.46478045	     -3.74718609	    -19.05539523	     -3.51232264	     -0.00000219	      0.00000000	    -15.93810316	     -1.59504806	      2.78061036
      0.13300000	      4.76529498	     -2.49916311	     -4.35318588	      0.62519305	      1.01940411	      0.01874901	    -14.47381455	      0.73176901	      3.12947367	    -37.19006058	      3.15207474	      0.00000544	      0.00000000	     17.83646219	     -2.83142787	     -3.88508290	    -19.86529914	     -2.71131770	     -0.00000200	      0.00000000	    -15.74763530	     -2.30126945	      2.51650937
      0.15000000	      4.79010984	     -2.02582635	     -4.33579154	      0.62639470	      1.02171538	      0.01493338	    -11.62629930	     -0.45561809	      1.15746032	    -42.89171474	     -1.12879535	      0.00000496	      0.00000000	     16.64702859	     -2.08231223	     -4.15016106	    -20.00536941	     -1.92988319	     -0.00000201	      0.00000000	    -15.59667697	     -2.80348291	      2.39656765
      0.16700000	      4.90836386	     -1.53349668	     -3.96872388	      0.62784138	      1.02427947	      0.01099936	     -8.97636822	     -1.84592310	     -1.28955978	    -47.97713089	     -5.19421916	      0.00000323	      0.00000000	     15.22532439	     -1.19111571	     -4.08961323	    -19.85182668	     -1.06731043	     -0.00000181	      0.00000000	    -15.59611857	     -3.35171875	      1.47553202
      0.18300000	      5.00160666	     -0.78706488	     -4.26310928	      0.62739717	      1.02672054	      0.00726201	     -5.96148370	     -3.78280268	     -2.94852340	    -53.06652895	     -7.75632647	      0.00000066	      0.00000000	     13.63206140	     -0.13255395	     -4.66104080	    -19.15336771	     -0.43044546	     -0.00000190	      0.00000000	    -15.69149424	     -4.15663629	      1.34438464
      0.20000000	      5.02567774	     -0.23706114	     -4.22614795	      0.62702016	      1.02897444	      0.00345861	     -3.12872015	     -5.39690441	     -4.48239279	    -57.53376934	     -8.35775333	     -0.00000290	      0.00000000	     12.19863343	      0.79796109	     -4.74954052	    -18.60886436	      0.30955085	     -0.00000198	      0.00000000	    -15.61180104	     -4.63260343	      0.48487827
      0.21700000	      4.98328077	      0.10475371	     -4.14350678	      0.62600892	      1.03114856	     -0.00029387	     -0.33226862	     -6.59991183	     -5.57120503	    -61.48941204	     -7.17300593	     -0.00000654	      0.00000000	     10.83707547	      1.50779110	     -4.67700038	    -18.02420124	      0.99532095	     -0.00000196	      0.00000000	    -15.59098224	     -4.85331436	      0.19516925
      0.23300000	      5.10465624	      0.13911178	     -3.63783327	      0.62588587	      1.03400151	     -0.00410924	      1.83126045	     -7.27033237	     -6.78709375	    -64.44032918	     -5.10541819	     -0.00000935	      0.00000000	      9.12091861	      1.95117740	     -4.14299638	    -17.20109959	      1.60968406	     -0.00000189	      0.00000000	    -15.66365521	     -4.63580128	     -0.74252399
      0.25000000	      5.31166889	      0.22986816	     -3.46593147	      0.62429962	      1.03673963	     -0.00680379	      4.10945141	     -7.72926280	     -7.27085491	    -66.97361401	     -2.84692639	     -0.00001156	      0.00000000	      7.27699980	      2.34621535	     -3.91690067	    -16.13760101	      2.03856141	     -0.00000197	      0.00000000	    -15.88262672	     -4.62092563	     -1.33943174
      0.26700000	      5.20603458	     -0.09864540	     -2.93214309	      0.62292489	      1.03893864	     -0.00975494	      6.42180505	     -7.57615121	     -8.00729401	    -68.55836865	     -1.06235615	     -0.00001259	      0.00000000	      5.83390141	      2.28318384	     -3.31463156	    -15.23958489	      2.58380554	     -0.00000175	      0.00000000	    -15.76677949	     -3.97626478	     -2.06615448
      0.28300000	      5.31834542	     -0.38582586	     -2.39016386	      0.62108800	      1.04116824	     -0.01200437	      8.49850140	     -7.20647974	     -8.40414423	    -69.46557021	      0.19636173	     -0.00001306	      0.00000000	      4.18477137	      2.19431597	     -2.75222398	    -14.30166747	      3.03744855	     -0.00000164	      0.00000000	    -16.06432979	     -3.52218497	     -2.73370544
      0.30000000	      5.34641415	     -0.68185333	     -1.95206046	      0.61904735	      1.04299408	     -0.01415943	     10.59599285	     -6.66739281	     -8.52075162	    -69.63012801	      0.95139689	     -0.00001209	      0.00000000	      2.56323009	      2.05504834	     -2.28565945	    -13.19738659	      3.38180332	     -0.00000142	      0.00000000	    -16.25434220	     -3.03347418	     -3.33816036
      0.31700000	      5.14996557	     -0.90763963	     -1.72467501	      0.61578517	      1.04384075	     -0.01535885	     13.03271581	     -5.90142500	     -8.10374210	    -69.25348074	      1.42524158	     -0.00001060	      0.00000000	      1.32557176	      1.90680990	     -1.99570396	    -12.24739764	      3.73915822	     -0.00000128	      0.00000000	    -16.22133858	     -2.72040842	     -3.81333902
      0.33300000	      5.06443520	     -1.46613454	     -1.10887009	      0.61346459	      1.04501853	     -0.01690457	     14.82117126	     -4.82263790	     -8.15154162	    -67.73878905	      1.67651459	     -0.00000833	      0.00000000	     -0.05322799	      1.38603734	     -1.37131114	    -11.34943330	      4.18067464	     -0.00000082	      0.00000000	    -16.36308414	     -1.94102864	     -4.33148430
      0.35000000	      4.83377445	     -1.73936246	     -0.82869848	      0.61020832	      1.04529857	     -0.01800419	     16.77709945	     -3.97957659	     -7.72256190	    -65.71751622	      1.99095330	     -0.00000595	      0.00000000	     -1.21312385	      1.15024451	     -1.05923539	    -10.47462985	      4.57766566	     -0.00000060	      0.00000000	    -16.39753779	     -1.50072322	     -4.64367703
      0.36700000	      4.88944942	     -2.02997784	     -0.68451418	      0.60714944	      1.04582759	     -0.01888948	     18.08850423	     -3.17177934	     -7.26950781	    -62.83048895	      2.27894154	     -0.00000426	      0.00000000	     -2.77712922	      0.88604106	     -0.89772396	     -9.44880887	      4.89947004	     -0.00000038	      0.00000000	    -16.62552273	     -1.10039602	     -4.68182996
      0.38300000	      4.92978508	     -2.11670527	     -0.93098698	      0.60469658	      1.04592826	     -0.02035974	     19.14024576	     -2.71750551	     -6.66475742	    -59.25958528	      2.52404039	     -0.00000306	      0.00000000	     -4.46131079	      0.93150939	     -1.09789264	     -8.26843115	      5.12369867	     -0.00000029	      0.00000000	    -16.85013377	     -0.88605911	     -4.81369065
